# Blender 3.3.0
# www.blender.org
mtllib mattest.mtl
o Plane
v -0.568055 1.038041 0.525787
v 1.431945 1.038041 0.525787
v -0.568055 1.038041 -1.474213
v 1.431945 1.038041 -1.474213
v -0.695121 0.911518 0.652853
v 1.559012 0.911518 0.652853
v -0.695121 0.911518 -1.601280
v 1.559012 0.911518 -1.601280
v -0.695121 0.006329 0.652853
v 1.559012 0.006329 0.652853
v -0.695121 0.006329 -1.601280
v 1.559012 0.006329 -1.601280
v -0.568055 1.038041 -1.474213
v -0.568055 1.038041 0.525787
v 1.431945 1.038041 0.525787
v 1.431945 1.038041 -1.474213
v -3.266345 0.824905 0.568117
v -1.266345 0.824905 0.568117
v -3.266345 0.824905 -1.431883
v -1.266345 0.824905 -1.431883
v -3.266345 0.735938 -1.475391
v -1.266345 0.735938 -1.475391
v -3.266345 2.679955 -1.945282
v -1.266345 2.679955 -1.945282
v -3.659860 0.735938 0.494531
v -3.760198 0.735938 -1.502950
v -4.129159 2.679955 0.518105
v -4.229497 2.679955 -1.479376
v -1.089931 0.735938 0.765341
v -3.085990 0.735938 0.639849
v -1.119415 2.679955 1.234306
v -3.115474 2.679955 1.108814
v 2.152716 0.735938 -1.481372
v 2.241194 0.735938 0.516670
v 2.622147 2.679955 -1.502159
v 2.710625 2.679955 0.495883
vn -0.0000 1.0000 -0.0000
vn 1.0000 -0.0000 -0.0000
vn -0.0000 0.7086 0.7056
vn 0.7056 0.7086 -0.0000
vn -0.7056 0.7086 -0.0000
vn -0.0000 0.7086 -0.7056
vn -0.0000 -1.0000 -0.0000
vn -1.0000 -0.0000 -0.0000
vn -0.0000 -0.0000 -1.0000
vn -0.0000 -0.0000 1.0000
vn -0.0000 0.2349 0.9720
vn 0.9708 0.2349 -0.0488
vn 0.0610 0.2349 -0.9701
vn -0.9711 0.2349 0.0430
vt -1.426735 -0.153126
vt -0.373680 -0.090218
vt -0.436587 -0.153126
vt -0.373680 -0.090218
vt -1.426735 -1.143273
vt -0.373680 -0.090218
vt -0.373680 -0.090218
vt -0.436587 -1.143273
vt 2.037714 0.774115
vt -1.489642 -0.090218
vt 2.044654 -0.089252
vt 2.482698 0.775264
vt -0.373680 -0.090218
vt 2.037714 1.889550
vt 2.044654 -1.204878
vt -1.489642 -1.206181
vt 2.044654 -1.206181
vt 2.044654 -0.090218
vt 2.482698 1.890964
vt -0.373680 -1.206181
vt -0.373680 1.025744
vt 1.599669 -0.090555
vt 1.592731 0.775745
vt 2.037713 0.774115
vt -1.489642 1.025744
vt 1.592731 1.891181
vt -0.373680 -0.090218
vt 1.599669 -1.206181
vt 2.489642 -1.206181
vt 2.037713 1.889815
vt -1.489642 -0.090218
vt 2.489642 -0.090218
vt -0.373680 -1.206181
vt -0.373680 -0.090218
vt -0.373680 -0.216033
vt -0.373680 -0.090218
vt 0.616468 -0.216033
vt -0.373680 -0.090218
vt 0.616468 -1.206181
vt -0.373680 -0.090218
vt 0.616468 0.774115
vt -0.373680 0.774115
vt 0.616468 -0.216033
vt -0.373680 -0.216033
vt -0.506448 1.025745
vt -0.506448 2.015893
vt -1.489642 1.025745
vt -1.489642 2.015893
vt 0.609528 1.763947
vt 0.609528 0.774115
vt 1.592731 1.766905
vt 1.592731 0.777073
vt -0.373680 1.767467
vt -0.373680 0.777814
vt 0.609528 1.763768
vt 0.609528 0.774115
vt 0.616468 -0.216279
vt 0.616468 -1.206181
vt 1.599669 -0.213670
vt 1.599669 -1.203572
s 0
usemtl Material.001
f 4/7/1 15/38/1 2/4/1
f 10/24/2 8/19/2 6/12/2
f 5/10/3 2/3/3 1/1/3
f 6/13/4 4/8/4 2/3/4
f 7/16/5 1/1/5 3/5/5
f 8/20/6 3/5/6 4/8/6
f 11/27/7 10/25/7 9/21/7
f 11/28/8 5/11/8 7/15/8
f 12/32/9 7/17/9 8/18/9
f 9/23/10 6/14/10 5/9/10
f 15/37/1 13/33/1 14/35/1
f 1/2/1 13/34/1 3/6/1
f 3/6/1 16/40/1 4/7/1
f 2/4/1 14/36/1 1/2/1
f 18/42/1 19/43/1 17/41/1
f 22/46/11 23/47/11 21/45/11
f 26/50/12 27/51/12 25/49/12
f 30/54/13 31/55/13 29/53/13
f 34/58/14 35/59/14 33/57/14
f 4/7/1 16/40/1 15/38/1
f 10/24/2 12/30/2 8/19/2
f 5/10/3 6/13/3 2/3/3
f 6/13/4 8/20/4 4/8/4
f 7/16/5 5/10/5 1/1/5
f 8/20/6 7/16/6 3/5/6
f 11/27/7 12/31/7 10/25/7
f 11/28/8 9/22/8 5/11/8
f 12/32/9 11/29/9 7/17/9
f 9/23/10 10/26/10 6/14/10
f 15/37/1 16/39/1 13/33/1
f 1/2/1 14/36/1 13/34/1
f 3/6/1 13/34/1 16/40/1
f 2/4/1 15/38/1 14/36/1
f 18/42/1 20/44/1 19/43/1
f 22/46/11 24/48/11 23/47/11
f 26/50/12 28/52/12 27/51/12
f 30/54/13 32/56/13 31/55/13
f 34/58/14 36/60/14 35/59/14
